<?xml version="1.0" standalone="no"?>
<!DOCTYPE svg PUBLIC "-//W3C//DTD SVG 20010904//EN"
 "http://www.w3.org/TR/2001/REC-SVG-20010904/DTD/svg10.dtd">
<svg version="1.0" xmlns="http://www.w3.org/2000/svg"
 width="270.000000pt" height="270.000000pt" viewBox="0 0 270.000000 270.000000"
 preserveAspectRatio="xMidYMid meet">
<metadata>
Created by potrace 1.11, written by Peter Selinger 2001-2013
</metadata>
<g transform="translate(0.000000,270.000000) scale(0.100000,-0.100000)"
fill="#000000" stroke="none">
<path d="M1182 2640 c-301 -43 -565 -179 -775 -400 -171 -180 -278 -385 -333
-641 -26 -118 -26 -380 0 -498 59 -273 168 -474 360 -666 195 -194 395 -302
667 -361 118 -26 380 -26 498 0 272 59 472 167 667 361 192 192 301 393 360
666 14 62 18 127 18 249 0 122 -4 187 -18 249 -59 273 -167 474 -360 667 -190
189 -384 296 -646 355 -98 22 -340 33 -438 19z m458 -207 c198 -61 365 -158
493 -287 156 -155 215 -249 286 -450 60 -169 76 -349 46 -517 -18 -107 -86
-302 -129 -376 -153 -260 -445 -471 -751 -544 -80 -19 -110 -21 -270 -16 -201
5 -253 16 -416 86 -160 70 -244 126 -364 246 -159 160 -253 330 -296 539 -21
104 -26 338 -8 446 20 127 101 321 181 438 52 76 196 219 269 268 87 57 237
128 314 148 180 46 175 46 380 42 165 -3 211 -7 265 -23z"/>
<path d="M1135 2222 c-134 -35 -260 -102 -384 -204 -122 -101 -236 -281 -282
-444 -31 -108 -31 -284 -1 -397 42 -153 129 -310 234 -423 104 -111 296 -225
447 -266 102 -28 306 -30 401 -5 133 36 321 143 419 239 133 131 239 345 270
545 20 130 -10 311 -74 450 -114 247 -323 422 -584 490 -132 34 -344 41 -446
15z m-53 -452 c46 -13 105 -77 114 -125 3 -20 4 -61 2 -91 -4 -42 -11 -61 -33
-84 -53 -56 -180 -78 -251 -44 -20 10 -45 34 -59 58 -98 167 38 338 227 286z
m848 -20 c41 -29 80 -108 80 -162 0 -105 -70 -168 -194 -176 -62 -3 -75 -1
-106 20 -52 35 -80 91 -80 161 0 85 33 137 110 172 50 22 148 15 190 -15z
m-501 -676 c184 -14 338 -27 343 -30 13 -9 9 -108 -7 -155 -36 -105 -149 -218
-263 -262 -65 -26 -234 -23 -307 4 -79 29 -172 118 -216 206 -31 63 -33 75
-34 163 l0 95 30 6 c17 4 50 5 75 3 25 -3 195 -16 379 -30z"/>
</g>
</svg>
